<?xml version="1.0" encoding="utf-8" ?>
<svg baseProfile="full" height="200mm" version="1.1" viewBox="0,0,200,200" width="200mm" xmlns="http://www.w3.org/2000/svg" xmlns:ev="http://www.w3.org/2001/xml-events" xmlns:xlink="http://www.w3.org/1999/xlink"><defs /><rect fill="#1a1a1a" height="200" width="200" x="0" y="0" /><text alignment-baseline="middle" fill="#e1ed5e" style="dominant-baseline: central; font-size:9.0px; font-family:Arial;" text-anchor="middle" x="100.0" y="100.0">2021</text><line stroke="#e1ed5e" stroke-width="0.3" x1="100.0" x2="100.0" y1="15.0" y2="10.0" /><path d="M 100.0 14.0 a86.0,86.0 0 0,1 42.46469731375804,11.215312516191453" fill="none" id="id13" stroke="none" /><text fill="#e1ed5e" style="font-size:6.75px; font-family:Arial;" text-anchor="middle"><textPath startOffset="22.20632615414155" xlink:href="#id13">January</textPath></text><path d="M 102.52436894288641 79.15227682838746 l 7.429120938583619 -61.354049364483515 a82.80219422754811,82.80219422754811 0 0,0 1.4134936703718401,0.18351204595423476 l -8.484129337463305 61.21707899536514" fill="#4be3ff" stroke="none" /><path d="M 108.76106565485865 80.91482961587045 l 9.857105858334346 -21.472792490304396 a44.627174042489344,44.627174042489344 0 0,0 0.6953801768965483,0.3264903170831172 l -10.225264246530493 21.29993719058128" fill="#ff0000" stroke="none" /><line stroke="#e1ed5e" stroke-width="0.3" x1="143.23703022742887" x2="145.7803849466894" y1="26.81831364943548" y2="22.513508569990506" /><path d="M 143.74570117128098 25.957352633546492 a86.0,86.0 0 0,1 28.547481713284135,27.462654790039103" fill="none" id="id14" stroke="none" /><text fill="#e1ed5e" style="font-size:6.75px; font-family:Arial;" text-anchor="middle"><textPath startOffset="19.985693538727396" xlink:href="#id14">February</textPath></text><path d="M 117.65298651832404 88.62581576622439 l 46.15482152361033 -29.7385058750057 a75.90579460816565,75.90579460816565 0 0,0 0.6982335620628636,1.1044378140308257 l -46.65988268191915 28.939620413260666" fill="#3dffae" stroke="none" /><line stroke="#e1ed5e" stroke-width="0.3" x1="172.23445277983987" x2="176.4835382374775" y1="55.19839476539836" y2="52.563006222186495" /><path d="M 173.08426987136738 54.67131705675599 a86.0,86.0 0 0,1 12.851231095245387,41.99856678651699" fill="none" id="id15" stroke="none" /><text fill="#e1ed5e" style="font-size:6.75px; font-family:Arial;" text-anchor="middle"><textPath startOffset="22.20632615414155" xlink:href="#id15">March</textPath></text><path d="M 118.56541770881063 90.18545643968196 l 50.04333611307177 -26.4552357446982 a77.60578581411471,77.60578581411471 0 0,0 0.6141595016429678,1.1863606741310473 l -50.49130504787485 25.589902348306808" fill="#40ffcb" stroke="none" /><path d="M 118.89224826269711 90.83032412892265 l 55.242301812310515 -26.812796176901326 a82.40552050383141,82.40552050383141 0 0,0 0.608395273158296,1.2814356054102432 l -55.695655279310564 25.85791815585054" fill="#4ae9ff" stroke="none" /><path d="M 119.34039704204932 91.81776055985345 l 54.290297923189485 -22.968309074453085 a79.94895817848078,79.94895817848078 0 0,0 0.5252963040320348,1.2720466663426568 l -54.67761591410772 22.030387837657127" fill="#45fff0" stroke="none" /><path d="M 119.85752413597 93.16781622104841 l 59.57257240790998 -20.496551336854747 a84.0,84.0 0 0,0 0.45865082491291975,1.371307588310744 l -59.91656052659467 19.46807064562169" fill="#4dd2ff" stroke="none" /><path d="M 120.18372546131832 94.20196356495316 l 55.51099417520326 -15.946251716033771 a78.7559816651969,78.7559816651969 0 0,0 0.36307718677257184,1.3061818191491597 l -55.777258132542194 14.98835859346566" fill="#43ffdd" stroke="none" /><path d="M 120.67395015179393 96.31383870115 l 58.33286807719941 -10.400739054623113 a80.25283850579913,80.25283850579913 0 0,0 0.23077712024206554,1.3620596272124177 l -58.5032570589617 9.395093639094858" fill="#46fff4" stroke="none" /><path d="M 120.91429891909075 98.10471618934814 l 60.06283910806254 -5.442980757982184 a81.30896020702704,81.30896020702704 0 0,0 0.11431852477203022,1.3949755604237704 l -60.147632116654066 4.408291280350645" fill="#48f9ff" stroke="none" /><path d="M 120.98425023603335 99.18683210126433 l 57.35735532985603 -2.2226746052867634 a78.40040498843497,78.40040498843497 0 0,0 0.04064988401501186,1.3489717512519799 l -57.38711690832669 1.2350327066097848" fill="#42ffd7" stroke="none" /><line stroke="#e1ed5e" stroke-width="0.3" x1="184.98032266829074" x2="189.97916517819016" y1="98.17113171792111" y2="98.06355123074" /><path d="M 185.9800911702706 98.14961562048488 a86.0,86.0 0 0,1 -9.607161424134198,41.387399972396054" fill="none" id="id16" stroke="none" /><text fill="#e1ed5e" style="font-size:6.75px; font-family:Arial;" text-anchor="middle"><textPath startOffset="21.466115282336823" xlink:href="#id16">April</textPath></text><path d="M 120.92983693683757 101.71520430193887 l 58.982140058713156 4.83359811505305 a80.17986580454115,80.17986580454115 0 0,0 -0.1245666901106227,1.3745830453958503 l -58.890198772325455 -5.848162548997471" fill="#46fff3" stroke="none" /><path d="M 120.13307415673323 105.97154293290107 l 57.79360893669241 17.141794359175616 a81.28218930811651,81.28218930811651 0 0,0 -0.40940378575652364,1.337955259796831 l -57.48997837842975 -18.134076591524504" fill="#48faff" stroke="none" /><path d="M 119.9155931802556 106.66101706037122 l 54.30178953866929 18.161906765818035 a78.25852953466584,78.25852953466584 0 0,0 -0.4382819347703182,1.2738524576686179 l -53.981116772955744 -19.093931926575955" fill="#42ffd5" stroke="none" /><path d="M 119.41010516605496 108.01547362559984 l 33.72767454867909 13.927966050927814 a57.49033116837134,57.49033116837134 0 0,0 -0.3855931779044916,0.9114283701828273 l -33.48293038958229 -14.506468946776804" fill="#f1ff19" stroke="none" /><path d="M 118.81262510543309 109.33194174019688 l 50.05993357798525 24.83206788259279 a76.88048447497562,76.88048447497562 0 0,0 -0.5982814781131718,1.1804661152958231 l -49.625073430085806 -25.690088209591305" fill="#3fffbf" stroke="none" /><line stroke="#e1ed5e" stroke-width="0.3" x1="174.80103733775053" x2="179.2010983576182" y1="140.37084112569926" y2="142.7455964860345" /><path d="M 175.68104954172406 140.8457921977663 a86.0,86.0 0 0,1 -30.038265399797805,32.042727171017184" fill="none" id="id17" stroke="none" /><text fill="#e1ed5e" style="font-size:6.75px; font-family:Arial;" text-anchor="middle"><textPath startOffset="22.206326154141568" xlink:href="#id17">May</textPath></text><path d="M 117.75023020441432 111.22182372390056 l 28.897770602704533 18.269379269042865 a55.18846829974498,55.18846829974498 0 0,0 -0.5145539852742808,0.7985992118910532 l -28.579011754053205 -18.76410008085537" fill="#ffe115" stroke="none" /><path d="M 116.93607887273984 112.41649034213515 l 46.234768314484874 33.89648563645277 a78.32909854163367,78.32909854163367 0 0,0 -0.8065611928361037,1.080520524150332 l -45.64444585495368 -34.68731904011242" fill="#42ffd6" stroke="none" /><line stroke="#e1ed5e" stroke-width="0.3" x1="143.8653032363475" x2="146.44561519142675" y1="172.8068346515853" y2="177.08958963109032" /><path d="M 144.38136562736335 173.6633856474863 a86.0,86.0 0 0,1 -40.68145358897372,12.25698825130547" fill="none" id="id18" stroke="none" /><text fill="#e1ed5e" style="font-size:6.75px; font-family:Arial;" text-anchor="middle"><textPath startOffset="21.466115282336833" xlink:href="#id18">June</textPath></text><line stroke="#e1ed5e" stroke-width="0.3" x1="102.19456741930631" x2="102.32365962044197" y1="184.97166512339345" y2="189.96999836594603" /><path d="M 102.22038585953345 185.97133177190398 a86.0,86.0 0 0,1 -42.740103519485714,-10.115201625700543" fill="none" id="id19" stroke="none" /><text fill="#e1ed5e" style="font-size:6.75px; font-family:Arial;" text-anchor="middle"><textPath startOffset="22.20632615414155" xlink:href="#id19">July</textPath></text><line stroke="#e1ed5e" stroke-width="0.3" x1="58.666819895761336" x2="56.23545636021788" y1="174.27360380694188" y2="178.64263932499728" /><path d="M 58.180547188652646 175.14741091055294 a86.0,86.0 0 0,1 -31.652253787137756,-30.449443065178592" fill="none" id="id20" stroke="none" /><text fill="#e1ed5e" style="font-size:6.75px; font-family:Arial;" text-anchor="middle"><textPath startOffset="22.20632615414155" xlink:href="#id20">August</textPath></text><line stroke="#e1ed5e" stroke-width="0.3" x1="26.63291911575756" x2="22.317208475507996" y1="142.92168965132927" y2="145.44649492493687" /><path d="M 25.769776987707644 143.4266507060508 a86.0,86.0 0 0,1 -11.730757126820373,-40.83630448921669" fill="none" id="id21" stroke="none" /><text fill="#e1ed5e" style="font-size:6.75px; font-family:Arial;" text-anchor="middle"><textPath startOffset="21.46611528233685" xlink:href="#id21">September</textPath></text><line stroke="#e1ed5e" stroke-width="0.3" x1="15.007084014347285" x2="10.007500721073583" y1="101.09737516637583" y2="101.16192664675087" /><path d="M 14.007167355692545 101.11028546245083 a86.0,86.0 0 0,1 10.666146001902534,-42.60595125391555" fill="none" id="id22" stroke="none" /><text fill="#e1ed5e" style="font-size:6.75px; font-family:Arial;" text-anchor="middle"><textPath startOffset="22.20632615414155" xlink:href="#id22">October</textPath></text><line stroke="#e1ed5e" stroke-width="0.3" x1="26.266209847984243" x2="21.928928074336255" y1="57.711370442889674" y2="55.22380399835377" /><path d="M 25.398753493254645 57.213857153982495 a86.0,86.0 0 0,1 29.58750427330803,-30.492523968695096" fill="none" id="id23" stroke="none" /><text fill="#e1ed5e" style="font-size:6.75px; font-family:Arial;" text-anchor="middle"><textPath startOffset="21.46611528233685" xlink:href="#id23">November</textPath></text><line stroke="#e1ed5e" stroke-width="0.3" x1="56.762969772571076" x2="54.21961505331055" y1="26.818313649435495" y2="22.513508569990535" /><path d="M 56.25429882871897 25.957352633546506 a86.0,86.0 0 0,1 42.265352541879196,-11.944610805530505" fill="none" id="id24" stroke="none" /><text fill="#e1ed5e" style="font-size:6.75px; font-family:Arial;" text-anchor="middle"><textPath startOffset="22.20632615414155" xlink:href="#id24">December</textPath></text></svg>